<svg viewBox="0 0 486 119" fill="none" xmlns="http://www.w3.org/2000/svg">
<path d="M37.3165 15.2856C41.7105 14.114 46.3885 14.7093 50.3489 16.9442C54.3093 19.179 57.2373 22.8757 58.5059 27.2426C61.7271 27.8769 64.8565 28.9107 67.8217 30.3201C67.7074 28.6318 67.4292 26.9586 66.9911 25.3242C63.2707 11.4401 48.9504 3.16866 35.0662 6.89253C21.1821 10.6164 12.9159 24.9332 16.6363 38.8156C17.0763 40.4512 17.6745 42.04 18.4226 43.5595C20.2847 40.8552 22.4779 38.3947 24.9511 36.2352C23.8656 31.8199 24.5519 27.1551 26.8631 23.2396C29.1742 19.324 32.9265 16.4689 37.3165 15.2856Z" fill="#5781C2"/>
<path d="M48.5594 57.2473C52.8424 56.0981 56.7614 53.8752 59.9457 50.7889C63.1299 47.7026 65.4741 43.8548 66.7564 39.6098C64.2398 38.1028 61.5222 36.9602 58.6849 36.2161C57.9416 39.2367 56.401 42.0024 54.2241 44.2245C52.0471 46.4466 49.3135 48.0436 46.3088 48.8487C43.304 49.6538 40.1382 49.6376 37.1419 48.8016C34.1455 47.9657 31.4285 46.3408 29.2745 44.0965C27.1906 46.1597 25.4092 48.5074 23.9832 51.0698C27.216 54.105 31.1696 56.2652 35.47 57.3462C39.7705 58.4271 44.2757 58.3931 48.5594 57.2473Z" fill="#6C7179"/>
<path d="M44.531 42.1206C50.0892 40.6198 53.3784 34.8974 51.8776 29.3392C50.3769 23.781 44.6545 20.4918 39.0963 21.9926C33.5381 23.4934 30.2489 29.2158 31.7496 34.774C33.2504 40.3322 38.9728 43.6214 44.531 42.1206Z" fill="#4B6A97"/>
<path d="M30.5865 107.519C26.9302 108.496 23.0547 108.254 19.549 106.827C16.0432 105.401 13.099 102.869 11.1638 99.6167C9.22861 96.3641 8.40821 92.5687 8.82733 88.8072C9.24645 85.0458 10.8822 81.524 13.4859 78.7772C13.209 77.9605 12.957 77.1316 12.73 76.2905C12.1026 73.9481 11.6891 71.5536 11.4945 69.1365C2.55057 75.1923 -2.03694 86.4734 0.911921 97.4799C4.63753 111.362 18.9578 119.63 32.8454 115.91C38.8502 114.307 44.0804 110.603 47.5845 105.47C44.3066 105.193 41.0767 104.504 37.9716 103.418C35.8871 105.374 33.3495 106.784 30.5865 107.519Z" fill="#5781C2"/>
<path d="M20.0839 65.3778C20.0166 68.3031 20.3677 71.223 21.1265 74.0489L21.1369 74.0854C21.2875 74.0402 21.4404 73.9968 21.5957 73.9551C24.5885 73.1542 27.7411 73.1681 30.7268 73.9953C33.7125 74.8224 36.4227 76.4328 38.5768 78.6595C40.7309 80.8863 42.2505 83.6485 42.9782 86.66C43.7059 89.6715 43.6152 92.8227 42.7155 95.7874C45.5465 96.5757 48.4761 96.9526 51.4144 96.9065C52.4577 92.6586 52.4087 88.2158 51.2719 83.992C47.6158 70.3494 33.7334 62.1301 20.0839 65.3778Z" fill="#6C7179"/>
<path d="M28.8185 100.791C34.3767 99.2902 37.6659 93.5678 36.1651 88.0096C34.6644 82.4515 28.942 79.1623 23.3838 80.663C17.8256 82.1638 14.5364 87.8862 16.0371 93.4444C17.5379 99.0026 23.2603 102.292 28.8185 100.791Z" fill="#4B6A97"/>
<path d="M80.4165 58.3855L80.764 58.2969C80.7449 58.2221 80.7275 58.1492 80.7084 58.0762C79.9708 55.3146 78.852 52.6693 77.3842 50.2166C63.9727 54.255 56.0818 68.2886 59.731 81.9173C60.8424 86.0698 62.9688 89.8807 65.9189 93.0072C68.4826 91.5802 70.8282 89.7924 72.8836 87.6986C70.6619 85.5655 69.0471 82.8804 68.2045 79.918C67.3619 76.9556 67.3217 73.8226 68.0882 70.8396C68.8546 67.8566 70.4001 65.1309 72.5663 62.9417C74.7326 60.7524 77.4417 59.1782 80.4165 58.3803V58.3855Z" fill="#6C7179"/>
<path d="M86.6704 49.1636C87.6768 51.3086 88.4909 53.5387 89.1031 55.8276C89.3348 56.7069 89.5387 57.5896 89.7148 58.4759C94.0501 59.7684 97.7103 62.7007 99.9177 66.6494C102.125 70.5982 102.705 75.2521 101.536 79.622C100.366 83.992 97.5378 87.7334 93.6528 90.0512C89.7678 92.369 85.1321 93.0804 80.7309 92.0341C78.5862 94.508 76.1395 96.703 73.4483 98.5678C79.1011 101.35 85.5727 101.984 91.6575 100.349C105.54 96.6286 113.808 82.3083 110.087 68.4241C107.135 57.3846 97.4875 49.9021 86.6704 49.1636Z" fill="#5781C2"/>
<path d="M87.6348 85.2267C93.193 83.726 96.4822 78.0036 94.9815 72.4454C93.4807 66.8872 87.7583 63.598 82.2001 65.0987C76.6419 66.5995 73.3527 72.3219 74.8535 77.8801C76.3542 83.4383 82.0766 86.7275 87.6348 85.2267Z" fill="#4B6A97"/>
<path d="M186.488 25.704H204.536C211.768 25.704 217.272 27.688 221.048 31.656C224.888 35.624 226.808 40.904 226.808 47.496V73.8C226.808 86.6 220.024 93 206.456 93H186.488V25.704ZM224.984 48.072C224.984 41.224 223.096 36.136 219.32 32.808C215.608 29.416 211 27.72 205.496 27.72H188.312V91.08H205.496C208.888 91.08 211.928 90.728 214.616 90.024C217.368 89.256 219.768 87.528 221.816 84.84C223.928 82.088 224.984 77.96 224.984 72.456V48.072ZM243.145 27.432C242.761 27.432 242.441 27.304 242.185 27.048C241.929 26.792 241.801 26.472 241.801 26.088C241.801 25.768 241.929 25.48 242.185 25.224C242.441 24.968 242.761 24.84 243.145 24.84C243.465 24.84 243.753 24.968 244.009 25.224C244.265 25.48 244.393 25.768 244.393 26.088C244.393 26.472 244.265 26.792 244.009 27.048C243.753 27.304 243.465 27.432 243.145 27.432ZM242.185 44.904H244.009V93H242.185V44.904ZM257.887 44.904H259.711V49.992C263.423 46.088 268.415 44.136 274.687 44.136C277.055 44.136 279.455 44.392 281.887 44.904L281.311 46.92C279.135 46.28 276.895 45.96 274.591 45.96C271.903 45.96 269.407 46.376 267.103 47.208C264.863 48.04 263.071 49.128 261.727 50.472C260.383 51.816 259.711 53.224 259.711 54.696V93H257.887V44.904ZM314.833 89.64C312.529 91.112 309.905 92.232 306.961 93C304.017 93.768 301.073 94.152 298.129 94.152C293.393 94.152 289.617 93 286.801 90.696C284.049 88.328 282.673 84.808 282.673 80.136V60.456C282.673 55.272 284.273 51.24 287.473 48.36C290.737 45.48 295.025 44.04 300.337 44.04C305.649 44.04 309.777 45.48 312.721 48.36C315.729 51.176 317.233 55.112 317.233 60.168V69.288L284.497 70.92V80.328C284.497 84.296 285.777 87.336 288.337 89.448C290.897 91.496 294.225 92.52 298.321 92.52C300.753 92.52 303.313 92.136 306.001 91.368C308.689 90.6 311.345 89.48 313.969 88.008L314.833 89.64ZM315.409 60.072C315.409 55.016 313.905 51.4 310.897 49.224C307.953 46.984 304.401 45.864 300.241 45.864C295.953 45.864 292.241 47.048 289.105 49.416C286.033 51.72 284.497 55.368 284.497 60.36V69.192L315.409 67.464V60.072ZM352.234 30.792C350.826 29.576 349.258 28.648 347.53 28.008C345.866 27.368 344.17 27.048 342.442 27.048C339.114 27.048 336.234 28.104 333.802 30.216C331.37 32.328 330.154 35.176 330.154 38.76V44.904H344.746L343.978 46.728H330.154V93H328.426V39.144C328.426 34.856 329.77 31.496 332.458 29.064C335.146 26.568 338.41 25.32 342.25 25.32C344.362 25.32 346.41 25.704 348.394 26.472C350.442 27.24 352.266 28.392 353.866 29.928V93H352.234V30.792ZM398.106 75.336C398.106 80.712 396.634 85.16 393.69 88.68C390.746 92.2 386.298 93.96 380.346 93.96C374.394 93.96 369.882 92.2 366.81 88.68C363.802 85.096 362.298 80.648 362.298 75.336V62.664C362.298 56.584 363.834 51.944 366.906 48.744C370.042 45.48 374.522 43.848 380.346 43.848C385.914 43.848 390.266 45.544 393.402 48.936C396.538 52.264 398.106 56.84 398.106 62.664V75.336ZM396.282 62.28C396.282 56.776 394.746 52.648 391.674 49.896C388.666 47.08 384.89 45.672 380.346 45.672C375.674 45.672 371.802 47.08 368.73 49.896C365.658 52.648 364.122 56.776 364.122 62.28V75.336C364.122 80.008 365.434 84.008 368.058 87.336C370.682 90.6 374.778 92.232 380.346 92.232C385.722 92.232 389.722 90.632 392.346 87.432C394.97 84.168 396.282 80.136 396.282 75.336V62.28ZM431.185 49.32L418.417 93H417.265L401.041 44.904H402.961L417.649 89.448L430.609 44.904H431.665L444.721 89.352L459.505 44.904H461.425L445.297 93H444.049L431.185 49.32Z" fill="#5781C2"/>
<path d="M485.354 115.354C485.549 115.158 485.549 114.842 485.354 114.646L482.172 111.464C481.976 111.269 481.66 111.269 481.464 111.464C481.269 111.66 481.269 111.976 481.464 112.172L484.293 115L481.464 117.828C481.269 118.024 481.269 118.34 481.464 118.536C481.66 118.731 481.976 118.731 482.172 118.536L485.354 115.354ZM161 115.5H485V114.5H161V115.5Z" fill="#5781C2"/>
</svg>
