<svg viewBox="0 0 718 671" fill="none" xmlns="http://www.w3.org/2000/svg">
<path d="M357.897 83.9591C384.067 83.9485 409.2 94.1846 427.916 112.476C446.632 130.767 457.442 155.659 458.033 181.822C475.007 190.118 490.879 200.5 505.283 212.727C507.146 203.169 508.076 193.452 508.059 183.714C507.923 100.996 440.532 33.7982 357.808 33.9533C275.084 34.1084 207.921 101.489 208.059 184.198C208.084 193.944 209.06 203.666 210.97 213.223C225.329 200.941 241.168 190.504 258.119 182.156C258.618 155.996 269.341 131.071 287.99 112.717C306.638 94.3637 331.732 84.041 357.897 83.9591V83.9591Z" fill="#DEDEDE"/>
<path d="M358.301 333.956C383.82 333.906 408.905 327.346 431.182 314.896C453.459 302.447 472.191 284.519 485.607 262.811C473.842 250.705 460.421 240.328 445.744 231.989C437.138 247.687 424.477 260.787 409.081 269.921C393.685 279.056 376.12 283.89 358.218 283.919C340.316 283.948 322.735 279.171 307.31 270.087C291.884 261.003 279.18 247.944 270.524 232.274C255.881 240.663 242.499 251.082 230.775 263.221C244.26 284.885 263.048 302.751 285.363 315.129C307.678 327.507 332.783 333.987 358.301 333.956V333.956Z" fill="#E6E6E6"/>
<path d="M358.292 243.871C391.423 243.754 418.186 216.8 418.068 183.669C417.951 150.537 390.997 123.775 357.866 123.892C324.734 124.01 297.972 150.963 298.089 184.095C298.207 217.226 325.16 243.989 358.292 243.871Z" fill="#F0F0F0"/>
<path d="M183.931 586.914C162.151 586.938 140.958 579.851 123.574 566.73C106.189 553.609 93.5644 535.17 87.6175 514.218C81.6706 493.265 82.7269 470.944 90.6261 450.646C98.5252 430.349 112.835 413.185 131.381 401.764C131.05 396.813 130.876 391.83 130.858 386.817C130.837 372.862 132.082 358.934 134.578 345.204C75.8755 365.64 33.6637 421.584 33.7688 487.158C33.9362 569.875 101.333 637.053 184.071 636.923C219.837 636.9 254.406 624.041 281.492 600.684C263.672 594.294 246.731 585.678 231.072 575.041C216.582 582.837 200.385 586.917 183.931 586.914V586.914Z" fill="#DEDEDE"/>
<path d="M187.909 337.017C183.204 353.185 180.834 369.942 180.871 386.781L180.875 386.999C181.779 386.971 182.694 386.956 183.619 386.954C201.448 386.931 218.959 391.675 234.338 400.695C249.718 409.715 262.406 422.682 271.088 438.254C279.771 453.826 284.133 471.437 283.721 489.261C283.31 507.086 278.14 524.476 268.748 539.631C283.325 548.206 299.059 554.638 315.467 558.732C327.557 536.653 333.862 511.874 333.793 486.702C333.657 405.422 268.623 339.162 187.909 337.017Z" fill="#E5E5E5"/>
<path d="M184.059 546.883C217.19 546.766 243.953 519.812 243.835 486.681C243.718 453.549 216.764 426.787 183.633 426.904C150.501 427.022 123.738 453.975 123.856 487.107C123.974 520.238 150.927 547.001 184.059 546.883Z" fill="#F0F0F0"/>
<path d="M533.776 387.446L535.84 387.468C535.844 387.024 535.856 386.592 535.857 386.158C535.844 369.709 533.538 353.342 529.006 337.529C448.445 340.133 383.789 406.494 383.906 487.686C383.94 512.424 390.123 536.765 401.901 558.519C418.27 554.379 433.96 547.909 448.491 539.307C439.294 524.157 434.288 506.833 433.988 489.112C433.687 471.391 438.102 453.908 446.78 438.454C455.459 423 468.088 410.13 483.376 401.162C498.663 392.194 516.06 387.451 533.784 387.417L533.776 387.446Z" fill="#E5E5E5"/>
<path d="M582.207 345.42C584.628 358.839 585.854 372.446 585.87 386.081C585.857 391.314 585.684 396.524 585.352 401.713C607.547 415.319 623.561 437.045 629.991 462.272C636.42 487.499 632.759 514.239 619.784 536.809C606.809 559.379 585.544 575.999 560.508 583.137C535.472 590.275 508.639 587.369 485.713 575.035C470.123 585.617 453.267 594.202 435.541 600.588C462.857 624.431 497.909 637.532 534.167 637.45C616.876 637.312 684.055 569.915 683.919 487.196C683.843 421.433 641.269 365.54 582.207 345.42Z" fill="#DEDEDE"/>
<path d="M534.183 547.399C567.314 547.281 594.077 520.327 593.96 487.196C593.842 454.065 566.888 427.302 533.757 427.419C500.626 427.537 473.863 454.491 473.98 487.622C474.098 520.753 501.052 547.516 534.183 547.399Z" fill="#F0F0F0"/>
</svg>
