<svg width="656" height="834" viewBox="0 0 656 834" fill="none" xmlns="http://www.w3.org/2000/svg">
<path d="M513.814 134.711C524.709 140.601 532.865 150.523 536.536 162.353C540.206 174.182 539.099 186.978 533.452 198.001C538.648 205.278 542.917 213.174 546.158 221.508C549.087 217.949 551.662 214.114 553.849 210.057C572.424 175.595 559.508 132.445 525.04 113.876C490.571 95.3079 447.438 108.226 428.866 142.685C426.681 146.748 424.897 151.014 423.54 155.423C432.283 153.544 441.227 152.768 450.163 153.111C456.263 142.334 466.341 134.374 478.237 130.935C490.134 127.496 502.904 128.852 513.814 134.711V134.711Z" fill="#DEDEDE"/>
<path d="M457.671 238.863C468.305 244.59 480.224 247.509 492.301 247.345C504.378 247.181 516.213 243.938 526.687 237.924C524.517 230.235 521.268 222.892 517.037 216.115C509.919 220.711 501.698 223.312 493.232 223.646C484.766 223.981 476.365 222.036 468.907 218.016C461.449 213.996 455.207 208.048 450.833 200.792C446.458 193.536 444.111 185.239 444.038 176.767C436.053 176.96 428.136 178.283 420.522 180.695C421.255 192.75 425.051 204.418 431.552 214.597C438.053 224.776 447.042 233.128 457.671 238.863V238.863Z" fill="#E6E6E6"/>
<path d="M477.958 201.363C491.776 208.777 508.987 203.586 516.401 189.768C523.814 175.951 518.623 158.74 504.806 151.326C490.988 143.913 473.777 149.104 466.364 162.921C458.95 176.738 464.141 193.949 477.958 201.363Z" fill="#F0F0F0"/>
<g opacity="0.6">
<path d="M213.908 434.019C204.836 429.123 197.611 421.4 193.331 412.022C189.05 402.645 187.948 392.126 190.192 382.065C192.436 372.004 197.904 362.951 205.764 356.281C213.624 349.612 223.446 345.691 233.738 345.114C234.716 342.979 235.766 340.866 236.887 338.775C240.022 332.961 243.678 327.444 247.809 322.291C218.771 317.576 188.599 331.354 173.873 358.673C155.311 393.141 168.233 436.284 202.702 454.866C217.594 462.913 234.88 465.347 251.416 461.726C245.437 455.052 240.327 447.65 236.204 439.695C228.417 439.676 220.756 437.726 213.908 434.019V434.019Z" fill="#DEDEDE"/>
<path d="M271.852 330.896C266.251 336.566 261.49 343.008 257.713 350.025L257.665 350.117C258.048 350.309 258.432 350.508 258.818 350.716C266.244 354.722 272.465 360.641 276.834 367.86C281.204 375.078 283.565 383.334 283.671 391.772C283.778 400.209 281.627 408.522 277.441 415.849C273.255 423.175 267.186 429.249 259.863 433.442C263.999 440.295 269.099 446.516 275.007 451.916C285.013 445.449 293.218 436.555 298.859 426.062C317.111 392.198 304.965 349.97 271.852 330.896Z" fill="#E5E5E5"/>
<path d="M222.978 417.385C236.795 424.799 254.006 419.608 261.42 405.79C268.834 391.973 263.642 374.762 249.825 367.348C236.008 359.935 218.797 365.126 211.383 378.943C203.969 392.76 209.16 409.971 222.978 417.385Z" fill="#F0F0F0"/>
</g>
<g opacity="0.75">
<path d="M466.834 333.594L467.688 334.068C467.79 333.884 467.891 333.707 467.99 333.526C471.689 326.676 474.416 319.344 476.092 311.742C441.972 294.68 400.111 307.738 381.872 341.561C376.314 351.866 373.405 363.39 373.408 375.098C381.154 377.062 389.142 377.903 397.128 377.596C396.712 369.217 398.531 360.879 402.397 353.435C406.264 345.991 412.04 339.708 419.133 335.23C426.226 330.752 434.382 328.24 442.765 327.951C451.149 327.661 459.458 329.605 466.843 333.583L466.834 333.594Z" fill="#E5E5E5"/>
<path d="M496.459 327.009C494.444 333.14 491.89 339.08 488.825 344.759C487.641 346.935 486.395 349.065 485.088 351.15C491.262 361.812 493.035 374.463 490.029 386.412C487.023 398.36 479.475 408.666 468.991 415.138C458.506 421.61 445.911 423.739 433.882 421.071C421.853 418.403 411.339 411.149 404.574 400.851C395.701 401.744 386.752 401.521 377.934 400.187C383.934 416.264 395.574 429.612 410.684 437.745C445.143 456.317 488.287 443.395 506.862 408.933C521.643 381.543 516.511 348.688 496.459 327.009Z" fill="#DEDEDE"/>
<path d="M430.975 400.265C444.792 407.679 462.003 402.488 469.417 388.671C476.83 374.853 471.639 357.642 457.822 350.228C444.005 342.815 426.793 348.006 419.38 361.823C411.966 375.64 417.157 392.852 430.975 400.265Z" fill="#F0F0F0"/>
</g>
<g opacity="0.6">
<path d="M192.001 554.068C199.526 549.331 208.607 547.729 217.299 549.605C225.992 551.48 233.604 556.685 238.506 564.103C244.889 563.419 251.333 563.534 257.688 564.445C256.495 561.359 255.005 558.396 253.238 555.598C238.236 531.83 206.696 524.692 182.929 539.701C159.163 554.71 152.033 586.241 167.034 610.006C168.805 612.805 170.844 615.424 173.122 617.828C175.031 611.698 177.699 605.831 181.064 600.363C176.476 592.748 175.051 583.639 177.095 574.986C179.139 566.334 184.49 558.825 192.001 554.068V554.068Z" fill="#DEDEDE"/>
<path d="M237.34 625.904C244.671 621.273 250.7 614.848 254.856 607.238C259.011 599.627 261.157 591.082 261.088 582.411C255.515 581.057 249.777 580.5 244.047 580.756C244.411 586.828 243.139 592.887 240.363 598.299C237.587 603.712 233.409 608.28 228.265 611.526C223.121 614.773 217.2 616.579 211.12 616.757C205.039 616.934 199.023 615.476 193.699 612.535C191.004 617.597 189.04 623.014 187.863 628.626C195.661 632.419 204.297 634.159 212.955 633.682C221.613 633.206 230.006 630.529 237.34 625.904V625.904Z" fill="#E6E6E6"/>
<path d="M221.042 599.994C230.55 593.966 233.372 581.372 227.345 571.864C221.318 562.355 208.724 559.533 199.215 565.56C189.707 571.587 186.885 584.181 192.912 593.69C198.939 603.198 211.533 606.021 221.042 599.994Z" fill="#F0F0F0"/>
<g opacity="0.8">
<path d="M132.936 734.532C126.676 738.479 119.298 740.274 111.924 739.645C104.55 739.015 97.5834 735.996 92.0826 731.045C86.5818 726.094 82.8479 719.482 81.4482 712.215C80.0486 704.948 81.0599 697.422 84.3284 690.782C83.3375 689.418 82.3861 688.016 81.4742 686.577C78.9438 682.567 76.7824 678.336 75.0165 673.935C61.8283 690.432 59.8066 714.16 71.6988 733.002C86.7099 756.764 118.248 763.896 142.023 748.891C152.306 742.415 159.924 732.463 163.489 720.845C157.208 722.23 150.776 722.817 144.348 722.59C141.591 727.453 137.669 731.557 132.936 734.532V734.532Z" fill="#DEDEDE"/>
<path d="M88.8752 661.933C90.4467 667.435 92.7963 672.683 95.8528 677.52L95.8934 677.582C96.1484 677.411 96.4088 677.241 96.6744 677.073C101.799 673.841 107.694 672.038 113.749 671.85C119.804 671.663 125.8 673.098 131.114 676.006C136.428 678.914 140.868 683.191 143.975 688.392C147.081 693.594 148.739 699.531 148.779 705.589C154.523 705.419 160.213 704.423 165.673 702.632C165.156 694.094 162.487 685.826 157.914 678.598C143.172 655.244 112.48 647.949 88.8752 661.933Z" fill="#E5E5E5"/>
</g>
<path d="M125.732 722.995C135.24 716.968 138.062 704.374 132.035 694.865C126.008 685.357 113.414 682.534 103.905 688.562C94.3969 694.589 91.5747 707.183 97.6018 716.691C103.629 726.2 116.223 729.022 125.732 722.995Z" fill="#F0F0F0"/>
<g opacity="0.75">
<path d="M297.489 609.547L298.087 609.18C298.008 609.052 297.933 608.925 297.855 608.8C294.875 604.071 291.251 599.781 287.088 596.052C264.386 611.374 257.793 642.158 272.514 665.491C276.998 672.6 283.18 678.483 290.503 682.61C294.463 678.458 297.805 673.758 300.429 668.656C295.043 665.962 290.469 661.884 287.177 656.841C283.885 651.798 281.993 645.971 281.693 639.956C281.394 633.941 282.698 627.955 285.473 622.61C288.248 617.265 292.394 612.753 297.486 609.537L297.489 609.547Z" fill="#E5E5E5"/>
<path d="M303.817 588.698C306.941 592.12 309.755 595.812 312.227 599.731C313.169 601.238 314.062 602.768 314.905 604.321C323.751 604.22 332.287 607.572 338.7 613.665C345.113 619.758 348.896 628.112 349.247 636.951C349.598 645.79 346.488 654.417 340.578 660.999C334.668 667.582 326.424 671.599 317.598 672.199C315.028 678.063 311.733 683.581 307.789 688.625C319.96 690.542 332.412 687.969 342.826 681.387C366.591 666.385 373.723 634.847 358.72 611.079C346.802 592.177 324.446 583.801 303.817 588.698Z" fill="#DEDEDE"/>
<path d="M326.541 655.482C336.049 649.455 338.872 636.861 332.845 627.352C326.817 617.843 314.223 615.021 304.715 621.048C295.206 627.075 292.384 639.67 298.411 649.178C304.438 658.687 317.032 661.509 326.541 655.482Z" fill="#F0F0F0"/>
</g>
</g>
</svg>
