<svg width="639" height="638" viewBox="0 0 639 638" fill="none" xmlns="http://www.w3.org/2000/svg">
<g clip-path="url(#clip0)">
<path d="M214.6 53.43C239.886 46.6877 266.807 50.1139 289.598 62.9749C312.39 75.8359 329.24 97.1093 336.54 122.24C355.077 125.89 373.086 131.84 390.15 139.95C389.492 130.234 387.891 120.606 385.37 111.2C363.96 31.3 281.55 -16.3 201.65 5.12999C121.75 26.56 74.18 108.95 95.59 188.84C98.122 198.252 101.565 207.395 105.87 216.14C116.586 200.577 129.207 186.417 143.44 173.99C137.193 148.581 141.143 121.736 154.443 99.2034C167.743 76.6704 189.336 60.24 214.6 53.43Z" fill="#5781C2"/>
<path d="M279.3 294.91C303.948 288.297 326.501 275.504 344.826 257.743C363.15 239.982 376.64 217.839 384.02 193.41C369.537 184.738 353.898 178.162 337.57 173.88C333.292 191.263 324.427 207.179 311.899 219.967C299.371 232.754 283.64 241.945 266.348 246.578C249.057 251.211 230.838 251.118 213.595 246.307C196.352 241.497 180.716 232.146 168.32 219.23C156.328 231.103 146.076 244.614 137.87 259.36C156.474 276.826 179.226 289.258 203.974 295.479C228.722 301.7 254.648 301.504 279.3 294.91Z" fill="#6C7179"/>
<path d="M256.118 207.859C288.104 199.223 307.032 166.292 298.396 134.305C289.759 102.319 256.828 83.3908 224.842 92.0273C192.856 100.664 173.928 133.595 182.564 165.581C191.201 197.567 224.132 216.496 256.118 207.859Z" fill="#4B6A97"/>
<path d="M175.87 584.21C154.829 589.837 132.526 588.44 112.352 580.232C92.1773 572.024 75.234 557.454 64.0973 538.737C52.9606 520.019 48.2394 498.177 50.6513 476.531C53.0633 454.884 62.4764 434.617 77.46 418.81C75.8667 414.11 74.4167 409.34 73.11 404.5C69.4999 391.02 67.1202 377.24 66 363.33C14.53 398.18 -11.87 463.1 5.1 526.44C26.54 606.33 108.95 653.91 188.87 632.5C223.426 623.278 253.524 601.959 273.69 572.42C254.826 570.83 236.239 566.861 218.37 560.61C206.374 571.871 191.771 579.98 175.87 584.21Z" fill="#5781C2"/>
<path d="M115.43 341.7C115.043 358.534 117.063 375.337 121.43 391.6L121.49 391.81C122.357 391.55 123.237 391.3 124.13 391.06C141.353 386.451 159.495 386.531 176.677 391.291C193.859 396.051 209.456 405.319 221.853 418.133C234.249 430.948 242.994 446.843 247.182 464.174C251.369 481.504 250.847 499.639 245.67 516.7C261.961 521.237 278.821 523.405 295.73 523.14C301.734 498.695 301.452 473.127 294.91 448.82C273.87 370.31 193.98 323.01 115.43 341.7Z" fill="#6C7179"/>
<path d="M165.696 545.494C197.682 536.858 216.611 503.927 207.974 471.94C199.338 439.954 166.406 421.026 134.42 429.662C102.434 438.299 83.5057 471.23 92.1422 503.216C100.779 535.202 133.71 554.131 165.696 545.494Z" fill="#4B6A97"/>
<path d="M462.63 301.46L464.63 300.95C464.52 300.52 464.42 300.1 464.31 299.68C460.065 283.788 453.627 268.565 445.18 254.45C368 277.69 322.59 358.45 343.59 436.88C349.986 460.776 362.223 482.708 379.2 500.7C393.954 492.488 407.452 482.2 419.28 470.15C406.495 457.875 397.202 442.422 392.353 425.375C387.504 408.327 387.273 390.297 391.684 373.13C396.094 355.964 404.988 340.279 417.454 327.68C429.92 315.081 445.511 306.022 462.63 301.43V301.46Z" fill="#6C7179"/>
<path d="M498.62 248.39C504.412 260.734 509.097 273.568 512.62 286.74C513.953 291.8 515.127 296.88 516.14 301.98C541.088 309.418 562.152 326.293 574.855 349.017C587.558 371.741 590.898 398.523 584.166 423.671C577.433 448.819 561.159 470.351 538.802 483.689C516.445 497.027 489.768 501.121 464.44 495.1C452.097 509.337 438.017 521.969 422.53 532.7C455.061 548.714 492.303 552.356 527.32 542.95C607.21 521.54 654.79 439.13 633.38 359.23C616.39 295.7 560.87 252.64 498.62 248.39Z" fill="#5781C2"/>
<path d="M504.17 455.925C536.156 447.289 555.085 414.357 546.448 382.371C537.812 350.385 504.881 331.457 472.895 340.093C440.908 348.73 421.98 381.661 430.616 413.647C439.253 445.633 472.184 464.562 504.17 455.925Z" fill="#4B6A97"/>
</g>
<defs>
<clipPath id="clip0">
<rect width="638.53" height="637.63" fill="white"/>
</clipPath>
</defs>
</svg>
